# Blender v2.91.2 OBJ File: 'pistas.blend'
# www.blender.org
mtllib pistas.mtl
o pista_Cube.001
v 7.020685 -0.005300 25.000000
v 7.020685 0.994472 25.000000
v 7.020685 -0.005300 -25.000000
v 7.020685 0.994472 -25.000000
v 9.020685 -0.005300 25.000000
v 9.020685 0.994472 25.000000
v 9.020685 -0.005300 -25.000000
v 9.020685 0.994472 -25.000000
v -5.019340 0.000000 25.096701
v 5.019340 0.000000 25.096701
v -5.019340 0.000000 -25.096701
v 5.019340 0.000000 -25.096701
v 7.020526 0.000001 -25.000000
v 7.020526 -0.000001 25.000000
v 7.001311 -0.195089 -25.000000
v 7.001311 -0.195091 25.000000
v 6.944406 -0.382682 -25.000000
v 6.944406 -0.382684 25.000000
v 6.851995 -0.555569 -25.000000
v 6.851995 -0.555571 25.000000
v 6.727633 -0.707106 -25.000000
v 6.727633 -0.707108 25.000000
v 6.576096 -0.831469 -25.000000
v 6.576096 -0.831471 25.000000
v 6.403209 -0.923879 -25.000000
v 6.403209 -0.923881 25.000000
v 6.215616 -0.980784 -25.000000
v 6.215616 -0.980787 25.000000
v 6.020525 -0.999999 -25.000000
v 6.020525 -1.000001 25.000000
v 5.825435 -0.980784 -25.000000
v 5.825435 -0.980786 25.000000
v 5.637842 -0.923878 -25.000000
v 5.637842 -0.923881 25.000000
v 5.464955 -0.831468 -25.000000
v 5.464955 -0.831470 25.000000
v 5.313418 -0.707105 -25.000000
v 5.313418 -0.707107 25.000000
v 5.189055 -0.555569 -25.000000
v 5.189055 -0.555571 25.000000
v 5.096646 -0.382682 -25.000000
v 5.096646 -0.382684 25.000000
v 5.039740 -0.195088 -25.000000
v 5.039740 -0.195091 25.000000
v 5.020525 0.000002 -25.000000
v 5.020525 -0.000000 25.000000
v -7.020685 -0.005300 25.000000
v -7.020685 0.994472 25.000000
v -7.020685 -0.005300 -25.000000
v -7.020685 0.994472 -25.000000
v -9.020685 -0.005300 25.000000
v -9.020685 0.994472 25.000000
v -9.020685 -0.005300 -25.000000
v -9.020685 0.994472 -25.000000
v 5.019340 0.000000 25.096701
v -5.019340 0.000000 25.096701
v 5.019340 0.000000 -25.096701
v -5.019340 0.000000 -25.096701
v -7.020526 0.000001 -25.000000
v -7.020526 -0.000001 25.000000
v -7.001311 -0.195089 -25.000000
v -7.001311 -0.195091 25.000000
v -6.944406 -0.382682 -25.000000
v -6.944406 -0.382684 25.000000
v -6.851995 -0.555569 -25.000000
v -6.851995 -0.555571 25.000000
v -6.727633 -0.707106 -25.000000
v -6.727633 -0.707108 25.000000
v -6.576096 -0.831469 -25.000000
v -6.576096 -0.831471 25.000000
v -6.403209 -0.923879 -25.000000
v -6.403209 -0.923881 25.000000
v -6.215616 -0.980784 -25.000000
v -6.215616 -0.980787 25.000000
v -6.020525 -0.999999 -25.000000
v -6.020525 -1.000001 25.000000
v -5.825435 -0.980784 -25.000000
v -5.825435 -0.980786 25.000000
v -5.637842 -0.923878 -25.000000
v -5.637842 -0.923881 25.000000
v -5.464955 -0.831468 -25.000000
v -5.464955 -0.831470 25.000000
v -5.313418 -0.707105 -25.000000
v -5.313418 -0.707107 25.000000
v -5.189055 -0.555569 -25.000000
v -5.189055 -0.555571 25.000000
v -5.096646 -0.382682 -25.000000
v -5.096646 -0.382684 25.000000
v -5.039740 -0.195088 -25.000000
v -5.039740 -0.195091 25.000000
v -5.020525 0.000002 -25.000000
v -5.020525 -0.000000 25.000000
vt 0.000000 0.000000
vt 1.000000 0.000000
vt 1.000000 1.000000
vt 0.000000 1.000000
vt 0.000000 0.000000
vt 0.000000 1.000000
vt 1.000000 1.000000
vt 1.000000 0.000000
vt 0.375000 0.000000
vt 0.625000 0.000000
vt 0.625000 0.250000
vt 0.375000 0.250000
vt 0.625000 0.500000
vt 0.375000 0.500000
vt 0.625000 0.750000
vt 0.375000 0.750000
vt 0.625000 1.000000
vt 0.375000 1.000000
vt 0.125000 0.500000
vt 0.125000 0.750000
vt 0.875000 0.500000
vt 0.875000 0.750000
vt 0.375000 0.000000
vt 0.375000 0.250000
vt 0.625000 0.250000
vt 0.625000 0.000000
vt 0.375000 0.500000
vt 0.625000 0.500000
vt 0.375000 0.750000
vt 0.625000 0.750000
vt 0.375000 1.000000
vt 0.625000 1.000000
vt 0.125000 0.500000
vt 0.125000 0.750000
vt 0.875000 0.750000
vt 0.875000 0.500000
vt 0.750000 0.500000
vt 0.750000 1.000000
vt 0.718750 1.000000
vt 0.718750 0.500000
vt 0.687500 1.000000
vt 0.687500 0.500000
vt 0.656250 1.000000
vt 0.656250 0.500000
vt 0.625000 1.000000
vt 0.625000 0.500000
vt 0.593750 1.000000
vt 0.593750 0.500000
vt 0.562500 1.000000
vt 0.562500 0.500000
vt 0.531250 1.000000
vt 0.531250 0.500000
vt 0.500000 1.000000
vt 0.500000 0.500000
vt 0.468750 1.000000
vt 0.468750 0.500000
vt 0.437500 1.000000
vt 0.437500 0.500000
vt 0.406250 1.000000
vt 0.406250 0.500000
vt 0.375000 1.000000
vt 0.375000 0.500000
vt 0.343750 1.000000
vt 0.343750 0.500000
vt 0.312500 1.000000
vt 0.312500 0.500000
vt 0.281250 1.000000
vt 0.281250 0.500000
vt 0.250000 1.000000
vt 0.250000 0.500000
vt 0.750000 0.500000
vt 0.718750 0.500000
vt 0.718750 1.000000
vt 0.750000 1.000000
vt 0.687500 0.500000
vt 0.687500 1.000000
vt 0.656250 0.500000
vt 0.656250 1.000000
vt 0.625000 0.500000
vt 0.625000 1.000000
vt 0.593750 0.500000
vt 0.593750 1.000000
vt 0.562500 0.500000
vt 0.562500 1.000000
vt 0.531250 0.500000
vt 0.531250 1.000000
vt 0.500000 0.500000
vt 0.500000 1.000000
vt 0.468750 0.500000
vt 0.468750 1.000000
vt 0.437500 0.500000
vt 0.437500 1.000000
vt 0.406250 0.500000
vt 0.406250 1.000000
vt 0.375000 0.500000
vt 0.375000 1.000000
vt 0.343750 0.500000
vt 0.343750 1.000000
vt 0.312500 0.500000
vt 0.312500 1.000000
vt 0.281250 0.500000
vt 0.281250 1.000000
vt 0.250000 0.500000
vt 0.250000 1.000000
vn 0.0000 1.0000 0.0000
vn -1.0000 0.0000 0.0000
vn 0.0000 0.0000 -1.0000
vn 1.0000 0.0000 0.0000
vn 0.0000 0.0000 1.0000
vn 0.0000 -1.0000 0.0000
vn 0.9952 -0.0980 0.0000
vn 0.9808 -0.1951 0.0000
vn 0.9239 -0.3827 0.0000
vn 0.8314 -0.5556 0.0000
vn 0.7071 -0.7071 0.0000
vn 0.5556 -0.8314 0.0000
vn 0.3827 -0.9239 0.0000
vn 0.1951 -0.9808 0.0000
vn -0.1951 -0.9808 0.0000
vn -0.3827 -0.9239 0.0000
vn -0.5556 -0.8314 0.0000
vn -0.7071 -0.7071 0.0000
vn -0.8314 -0.5556 0.0000
vn -0.9239 -0.3827 0.0000
vn -0.9808 -0.1951 0.0000
vn -0.9952 -0.0980 0.0000
usemtl Material
s off
f 9/1/1 10/2/1 12/3/1 11/4/1
f 55/5/1 57/6/1 58/7/1 56/8/1
usemtl Material.001
f 1/9/2 2/10/2 4/11/2 3/12/2
f 3/12/3 4/11/3 8/13/3 7/14/3
f 7/14/4 8/13/4 6/15/4 5/16/4
f 5/16/5 6/15/5 2/17/5 1/18/5
f 3/19/6 7/14/6 5/16/6 1/20/6
f 8/13/1 4/21/1 2/22/1 6/15/1
f 47/23/4 49/24/4 50/25/4 48/26/4
f 49/24/3 53/27/3 54/28/3 50/25/3
f 53/27/2 51/29/2 52/30/2 54/28/2
f 51/29/5 47/31/5 48/32/5 52/30/5
f 49/33/6 47/34/6 51/29/6 53/27/6
f 54/28/1 52/30/1 48/35/1 50/36/1
usemtl Material.002
s 1
f 13/37/7 14/38/7 16/39/8 15/40/8
f 15/40/8 16/39/8 18/41/9 17/42/9
f 17/42/9 18/41/9 20/43/10 19/44/10
f 19/44/10 20/43/10 22/45/11 21/46/11
f 21/46/11 22/45/11 24/47/12 23/48/12
f 23/48/12 24/47/12 26/49/13 25/50/13
f 25/50/13 26/49/13 28/51/14 27/52/14
f 27/52/14 28/51/14 30/53/6 29/54/6
f 29/54/6 30/53/6 32/55/15 31/56/15
f 31/56/15 32/55/15 34/57/16 33/58/16
f 33/58/16 34/57/16 36/59/17 35/60/17
f 35/60/17 36/59/17 38/61/18 37/62/18
f 37/62/18 38/61/18 40/63/19 39/64/19
f 39/64/19 40/63/19 42/65/20 41/66/20
f 41/66/20 42/65/20 44/67/21 43/68/21
f 43/68/21 44/67/21 46/69/22 45/70/22
f 59/71/22 61/72/21 62/73/21 60/74/22
f 61/72/21 63/75/20 64/76/20 62/73/21
f 63/75/20 65/77/19 66/78/19 64/76/20
f 65/77/19 67/79/18 68/80/18 66/78/19
f 67/79/18 69/81/17 70/82/17 68/80/18
f 69/81/17 71/83/16 72/84/16 70/82/17
f 71/83/16 73/85/15 74/86/15 72/84/16
f 73/85/15 75/87/6 76/88/6 74/86/15
f 75/87/6 77/89/14 78/90/14 76/88/6
f 77/89/14 79/91/13 80/92/13 78/90/14
f 79/91/13 81/93/12 82/94/12 80/92/13
f 81/93/12 83/95/11 84/96/11 82/94/12
f 83/95/11 85/97/10 86/98/10 84/96/11
f 85/97/10 87/99/9 88/100/9 86/98/10
f 87/99/9 89/101/8 90/102/8 88/100/9
f 89/101/8 91/103/7 92/104/7 90/102/8
